<svg width="24" height="25" viewBox="0 0 24 25" fill="none" xmlns="http://www.w3.org/2000/svg">
<path fill-rule="evenodd" clip-rule="evenodd" d="M16 3.53857H8C5.23858 3.53857 3 5.77715 3 8.53857V16.5386C3 19.3 5.23858 21.5386 8 21.5386H16C18.7614 21.5386 21 19.3 21 16.5386V8.53857C21 5.77715 18.7614 3.53857 16 3.53857ZM19.25 16.5386C19.2445 18.3312 17.7926 19.7831 16 19.7886H8C6.20735 19.7831 4.75549 18.3312 4.75 16.5386V8.53857C4.75549 6.74592 6.20735 5.29406 8 5.28857H16C17.7926 5.29406 19.2445 6.74592 19.25 8.53857V16.5386ZM16.75 8.78857C17.3023 8.78857 17.75 8.34085 17.75 7.78857C17.75 7.23629 17.3023 6.78857 16.75 6.78857C16.1977 6.78857 15.75 7.23629 15.75 7.78857C15.75 8.34085 16.1977 8.78857 16.75 8.78857ZM12 8.03857C9.51472 8.03857 7.5 10.0533 7.5 12.5386C7.5 15.0239 9.51472 17.0386 12 17.0386C14.4853 17.0386 16.5 15.0239 16.5 12.5386C16.5027 11.3443 16.0294 10.1981 15.1849 9.35365C14.3404 8.50916 13.1943 8.03591 12 8.03857ZM9.25 12.5386C9.25 14.0574 10.4812 15.2886 12 15.2886C13.5188 15.2886 14.75 14.0574 14.75 12.5386C14.75 11.0198 13.5188 9.78857 12 9.78857C10.4812 9.78857 9.25 11.0198 9.25 12.5386Z" fill="#AFB5AD"/>
</svg>
