<svg width="24" height="25" viewBox="0 0 24 25" fill="none" xmlns="http://www.w3.org/2000/svg">
<path fill-rule="evenodd" clip-rule="evenodd" d="M4.5 3.53857C3.67157 3.53857 3 4.21014 3 5.03857V20.0386C3 20.867 3.67157 21.5386 4.5 21.5386H19.5C20.3284 21.5386 21 20.867 21 20.0386V5.03857C21 4.21014 20.3284 3.53857 19.5 3.53857H4.5ZM8.52076 7.54129C8.52639 8.49754 7.81061 9.08676 6.96123 9.08254C6.16107 9.07832 5.46357 8.44129 5.46779 7.5427C5.47201 6.69754 6.13998 6.01832 7.00764 6.03801C7.88795 6.0577 8.52639 6.70317 8.52076 7.54129ZM12.2797 10.3003H9.75971H9.7583V18.8602H12.4217V18.6605C12.4217 18.2806 12.4214 17.9006 12.4211 17.5205C12.4203 16.5067 12.4194 15.4918 12.4246 14.4783C12.426 14.2322 12.4372 13.9763 12.5005 13.7414C12.7381 12.8639 13.5271 12.2972 14.4074 12.4365C14.9727 12.525 15.3467 12.8527 15.5042 13.3857C15.6013 13.7189 15.6449 14.0775 15.6491 14.4249C15.6605 15.4725 15.6589 16.5201 15.6573 17.5678C15.6567 17.9376 15.6561 18.3076 15.6561 18.6774V18.8588H18.328V18.6535C18.328 18.2015 18.3278 17.7496 18.3275 17.2977C18.327 16.1682 18.3264 15.0387 18.3294 13.9088C18.3308 13.3983 18.276 12.8949 18.1508 12.4013C17.9638 11.6672 17.5771 11.0597 16.9485 10.621C16.5027 10.3088 16.0133 10.1077 15.4663 10.0852C15.404 10.0826 15.3412 10.0792 15.2781 10.0758C14.9984 10.0607 14.7141 10.0453 14.4467 10.0992C13.6817 10.2525 13.0096 10.6027 12.5019 11.22C12.4429 11.2908 12.3852 11.3627 12.2991 11.47L12.2797 11.4943V10.3003ZM5.68164 18.863H8.33242V10.3059H5.68164V18.863Z" fill="#AFB5AD"/>
</svg>
